<svg width="750" height="750" viewBox="0 0 750 750" fill="none" xmlns="http://www.w3.org/2000/svg">
<g clip-path="url(#clip0)">
<path d="M699.76 562.5L375 750L50.2402 562.5V187.5L375 0L699.76 187.5V562.5Z" fill="white"/>
<path d="M502.987 318.659V448.799L388.18 515.082L616.566 647.216L730.5 580.154V450.287L502.987 318.659Z" fill="white"/>
<path d="M683.521 553.125L375 731.25L66.4785 553.125V196.875L375 18.75L683.521 196.875V553.125Z" fill="#006699"/>
<path d="M521.394 348.298V459.759L423.067 516.527L618.67 629.695L716.25 572.259V461.033L521.394 348.298Z" fill="#006699"/>
<path d="M618.569 515.625L375 656.25L131.431 515.625V234.375L375 93.75L618.569 234.375V515.625Z" fill="white"/>
<path d="M553.617 478.125L375 581.25L196.382 478.125V271.875L375 168.75L553.617 271.875V478.125Z" fill="#006699"/>
<path d="M586.319 459.721V496.875L553.543 515.797L618.744 553.52L651.271 534.375V497.299L586.319 459.721Z" fill="white"/>
<path opacity="0.05" d="M375 375V731.25L66.4785 553.125V196.875L375 375Z" fill="#F6F6F6"/>
<path opacity="0.2" d="M375 18.75L683.521 196.875L375 375L66.4785 196.875L375 18.75Z" fill="#F6F6F6"/>
<path opacity="0.1" d="M683.521 442.098L618.569 478.38L651.271 497.3L716.25 461.033L683.521 442.098Z" fill="white"/>
<path opacity="0.05" d="M585.872 534.503L618.744 553.52L618.67 629.695L584.819 610.111L585.872 534.503Z" fill="white"/>
</g>
<defs>
<clipPath id="clip0">
<rect width="750" height="750" fill="white"/>
</clipPath>
</defs>
</svg>
